<?xml version="1.0" encoding="UTF-8"?>
<svg version="1.1" xmlns="http://www.w3.org/2000/svg" width="1024" height="1024">
<path d="M0 0 C337.92 0 675.84 0 1024 0 C1024 337.92 1024 675.84 1024 1024 C686.08 1024 348.16 1024 0 1024 C0 686.08 0 348.16 0 0 Z " fill="#F4F4F4" transform="translate(0,0)"/>
<path d="M0 0 C5.29112204 2.74731337 9.09375244 6.28125733 11 12 C11 18.93 11 25.86 11 33 C46.64 33 82.28 33 119 33 C119 26.4 119 19.8 119 13 C121.95529755 6.10430573 123.42710428 3.28644786 130 0 C134.53348826 -0.55308557 138.07356732 -0.42758431 142.25 1.5 C146.32050044 5.20045494 149.54592427 9.04050767 150.40185547 14.61914062 C150.48996837 17.42879728 150.43837601 20.19199668 150.3125 23 C150.27866211 24.44826172 150.27866211 24.44826172 150.24414062 25.92578125 C150.18573128 28.28551874 150.10390208 30.64190223 150 33 C150.80630859 32.98428955 151.61261719 32.9685791 152.44335938 32.95239258 C156.1288337 32.88968024 159.81419535 32.8508938 163.5 32.8125 C164.7684375 32.78736328 166.036875 32.76222656 167.34375 32.73632812 C177.91133016 32.65376891 185.92034937 34.1421392 193.8203125 41.75390625 C200.47277156 48.86563549 202.45849746 55.68267241 202.38095093 65.21556091 C202.3856309 66.11034419 202.39031087 67.00512746 202.39513266 67.92702538 C202.40704276 70.90780248 202.39764096 73.88811644 202.38818359 76.86889648 C202.39225109 79.01308459 202.39759397 81.15727059 202.40411377 83.30145264 C202.41777274 89.11343374 202.41249427 94.9252548 202.40297651 100.73723865 C202.39537164 106.8255676 202.40242792 112.91388302 202.40713501 119.00221252 C202.41259055 129.22684179 202.40540662 139.45140601 202.39111328 149.67602539 C202.37479157 161.4878325 202.38007268 173.2994842 202.3965925 185.11128753 C202.41021827 195.26098821 202.41212154 205.41064218 202.40427649 215.56034905 C202.39960544 221.61860676 202.39895948 227.67679149 202.40888596 233.73504448 C202.417569 239.43225735 202.41150907 245.12927044 202.39420319 250.82646179 C202.39024533 252.91417166 202.39136034 255.00189842 202.39799118 257.08960152 C202.40622455 259.94577779 202.39586334 262.80131929 202.38095093 265.65745544 C202.38764309 266.47790059 202.39433526 267.29834574 202.40123022 268.14365286 C202.30835725 277.35408585 199.65637461 284.28937842 193.32421875 290.984375 C185.69460463 297.60098153 177.7974737 299.14926782 168.00643921 299.14717102 C166.6275719 299.15268605 166.6275719 299.15268605 165.22084868 299.1583125 C162.13339219 299.16934606 159.04596935 299.17319264 155.95849609 299.17700195 C153.74755751 299.18326687 151.53661997 299.1899137 149.32568359 299.19691467 C142.05827569 299.21795481 134.79086757 299.22831731 127.5234375 299.23828125 C125.02120579 299.24232888 122.51897419 299.2464458 120.01674271 299.25063133 C109.60762293 299.26750015 99.19850473 299.28213456 88.7893734 299.28938007 C86.08956272 299.29128985 83.38975205 299.2932102 80.68994141 299.29516602 C79.68345066 299.29589163 79.68345066 299.29589163 78.65662678 299.2966319 C67.79335296 299.30492755 56.93018941 299.33025745 46.06696372 299.36274669 C34.90453067 299.39585759 23.74213747 299.41350001 12.57965147 299.41702431 C6.31613338 299.41937415 0.05278962 299.4283263 -6.21068192 299.45348549 C-12.10566304 299.47678182 -18.00035524 299.48099295 -23.89537048 299.47072411 C-26.05523515 299.47022901 -28.21511412 299.47654152 -30.37493515 299.49028015 C-33.33181305 299.50803164 -36.28765769 299.50087657 -39.24453735 299.48774719 C-40.51578349 299.50420106 -40.51578349 299.50420106 -41.81271136 299.52098733 C-51.47915195 299.41790841 -59.16237185 295.75484032 -66.08984375 289.1328125 C-75.88723507 278.19339397 -74.29855443 262.56294923 -74.29052734 248.86962891 C-74.29651831 246.8285345 -74.30332516 244.78744235 -74.31088257 242.74635315 C-74.32848951 237.22357624 -74.33323564 231.70086137 -74.33451414 226.1780591 C-74.33593903 222.7228497 -74.34021497 219.26765592 -74.34550858 215.81245041 C-74.3639896 203.745074 -74.37218139 191.67774166 -74.37060547 179.61035156 C-74.36940382 168.3824775 -74.3905158 157.15479558 -74.4220928 145.92697012 C-74.44828425 136.26805301 -74.45897159 126.60919855 -74.45769465 116.95024621 C-74.45718597 111.18978061 -74.46281766 105.42948599 -74.48405075 99.66905594 C-74.50348204 94.2500169 -74.50352408 88.83131117 -74.48901749 83.41226006 C-74.48693454 81.43061648 -74.4915994 79.44895177 -74.5037384 77.46734428 C-74.58212729 63.77772204 -74.39039234 51.34858102 -64.29296875 40.91015625 C-57.80570127 35.50594194 -50.72866499 32.86581369 -42.36328125 32.90234375 C-40.41518555 32.90717773 -40.41518555 32.90717773 -38.42773438 32.91210938 C-37.05598892 32.92046469 -35.68424413 32.92892963 -34.3125 32.9375 C-32.92903805 32.94251665 -31.54557437 32.94707927 -30.16210938 32.95117188 C-26.77469605 32.96297471 -23.38736967 32.97943981 -20 33 C-20.02094727 32.40050537 -20.04189453 31.80101074 -20.06347656 31.18334961 C-20.14725274 28.43490758 -20.19885144 25.68673508 -20.25 22.9375 C-20.28351563 21.99455078 -20.31703125 21.05160156 -20.3515625 20.08007812 C-20.43935717 13.78081029 -19.713893 10.13450781 -16 5 C-11.13249607 0.48865489 -6.61649365 -0.90396118 0 0 Z " fill="#F4F4F4" transform="translate(205,352)"/>
<path d="M0 0 C5.29112204 2.74731337 9.09375244 6.28125733 11 12 C11 18.93 11 25.86 11 33 C46.64 33 82.28 33 119 33 C119 26.4 119 19.8 119 13 C121.95529755 6.10430573 123.42710428 3.28644786 130 0 C134.53348826 -0.55308557 138.07356732 -0.42758431 142.25 1.5 C146.32050044 5.20045494 149.54592427 9.04050767 150.40185547 14.61914062 C150.48996837 17.42879728 150.43837601 20.19199668 150.3125 23 C150.27866211 24.44826172 150.27866211 24.44826172 150.24414062 25.92578125 C150.18573128 28.28551874 150.10390208 30.64190223 150 33 C150.80630859 32.98428955 151.61261719 32.9685791 152.44335938 32.95239258 C156.1288337 32.88968024 159.81419535 32.8508938 163.5 32.8125 C164.7684375 32.78736328 166.036875 32.76222656 167.34375 32.73632812 C177.91133016 32.65376891 185.92034937 34.1421392 193.8203125 41.75390625 C200.47277156 48.86563549 202.45849746 55.68267241 202.38095093 65.21556091 C202.3856309 66.11034419 202.39031087 67.00512746 202.39513266 67.92702538 C202.40704276 70.90780248 202.39764096 73.88811644 202.38818359 76.86889648 C202.39225109 79.01308459 202.39759397 81.15727059 202.40411377 83.30145264 C202.41777274 89.11343374 202.41249427 94.9252548 202.40297651 100.73723865 C202.39537164 106.8255676 202.40242792 112.91388302 202.40713501 119.00221252 C202.41259055 129.22684179 202.40540662 139.45140601 202.39111328 149.67602539 C202.37479157 161.4878325 202.38007268 173.2994842 202.3965925 185.11128753 C202.41021827 195.26098821 202.41212154 205.41064218 202.40427649 215.56034905 C202.39960544 221.61860676 202.39895948 227.67679149 202.40888596 233.73504448 C202.417569 239.43225735 202.41150907 245.12927044 202.39420319 250.82646179 C202.39024533 252.91417166 202.39136034 255.00189842 202.39799118 257.08960152 C202.40622455 259.94577779 202.39586334 262.80131929 202.38095093 265.65745544 C202.38764309 266.47790059 202.39433526 267.29834574 202.40123022 268.14365286 C202.30835725 277.35408585 199.65637461 284.28937842 193.32421875 290.984375 C185.69460463 297.60098153 177.7974737 299.14926782 168.00643921 299.14717102 C166.6275719 299.15268605 166.6275719 299.15268605 165.22084868 299.1583125 C162.13339219 299.16934606 159.04596935 299.17319264 155.95849609 299.17700195 C153.74755751 299.18326687 151.53661997 299.1899137 149.32568359 299.19691467 C142.05827569 299.21795481 134.79086757 299.22831731 127.5234375 299.23828125 C125.02120579 299.24232888 122.51897419 299.2464458 120.01674271 299.25063133 C109.60762293 299.26750015 99.19850473 299.28213456 88.7893734 299.28938007 C86.08956272 299.29128985 83.38975205 299.2932102 80.68994141 299.29516602 C79.68345066 299.29589163 79.68345066 299.29589163 78.65662678 299.2966319 C67.79335296 299.30492755 56.93018941 299.33025745 46.06696372 299.36274669 C34.90453067 299.39585759 23.74213747 299.41350001 12.57965147 299.41702431 C6.31613338 299.41937415 0.05278962 299.4283263 -6.21068192 299.45348549 C-12.10566304 299.47678182 -18.00035524 299.48099295 -23.89537048 299.47072411 C-26.05523515 299.47022901 -28.21511412 299.47654152 -30.37493515 299.49028015 C-33.33181305 299.50803164 -36.28765769 299.50087657 -39.24453735 299.48774719 C-40.51578349 299.50420106 -40.51578349 299.50420106 -41.81271136 299.52098733 C-51.47915195 299.41790841 -59.16237185 295.75484032 -66.08984375 289.1328125 C-75.88723507 278.19339397 -74.29855443 262.56294923 -74.29052734 248.86962891 C-74.29651831 246.8285345 -74.30332516 244.78744235 -74.31088257 242.74635315 C-74.32848951 237.22357624 -74.33323564 231.70086137 -74.33451414 226.1780591 C-74.33593903 222.7228497 -74.34021497 219.26765592 -74.34550858 215.81245041 C-74.3639896 203.745074 -74.37218139 191.67774166 -74.37060547 179.61035156 C-74.36940382 168.3824775 -74.3905158 157.15479558 -74.4220928 145.92697012 C-74.44828425 136.26805301 -74.45897159 126.60919855 -74.45769465 116.95024621 C-74.45718597 111.18978061 -74.46281766 105.42948599 -74.48405075 99.66905594 C-74.50348204 94.2500169 -74.50352408 88.83131117 -74.48901749 83.41226006 C-74.48693454 81.43061648 -74.4915994 79.44895177 -74.5037384 77.46734428 C-74.58212729 63.77772204 -74.39039234 51.34858102 -64.29296875 40.91015625 C-57.80570127 35.50594194 -50.72866499 32.86581369 -42.36328125 32.90234375 C-40.41518555 32.90717773 -40.41518555 32.90717773 -38.42773438 32.91210938 C-37.05598892 32.92046469 -35.68424413 32.92892963 -34.3125 32.9375 C-32.92903805 32.94251665 -31.54557437 32.94707927 -30.16210938 32.95117188 C-26.77469605 32.96297471 -23.38736967 32.97943981 -20 33 C-20.02094727 32.40050537 -20.04189453 31.80101074 -20.06347656 31.18334961 C-20.14725274 28.43490758 -20.19885144 25.68673508 -20.25 22.9375 C-20.28351563 21.99455078 -20.31703125 21.05160156 -20.3515625 20.08007812 C-20.43935717 13.78081029 -19.713893 10.13450781 -16 5 C-11.13249607 0.48865489 -6.61649365 -0.90396118 0 0 Z M-41 85 C-42.45721119 87.91442239 -42.1394844 90.47348407 -42.15390015 93.72991943 C-42.1582824 94.42976589 -42.16266465 95.12961236 -42.1671797 95.85066628 C-42.18058726 98.207413 -42.18675094 100.56412231 -42.19287109 102.92089844 C-42.20077054 104.6060198 -42.20903939 106.29113946 -42.21765137 107.97625732 C-42.24389039 113.5206134 -42.25918119 119.06497711 -42.2734375 124.609375 C-42.27879647 126.51672623 -42.28417397 128.4240774 -42.28956985 130.33142853 C-42.31120162 138.26475749 -42.32993878 146.1980844 -42.34119225 154.13143539 C-42.35743388 165.50718841 -42.39061343 176.88259997 -42.44759309 188.25822425 C-42.48627604 196.25319672 -42.505823 204.2480778 -42.51111281 212.24314141 C-42.51476863 217.01993316 -42.52681412 221.79636089 -42.55921555 226.57305145 C-42.58926715 231.06783371 -42.59561851 235.56203114 -42.58383179 240.0568924 C-42.58361081 241.70565469 -42.59193635 243.35444388 -42.60948563 245.00311279 C-42.63216735 247.2568276 -42.62388978 249.5084199 -42.60800171 251.762146 C-42.61131186 253.02240475 -42.614622 254.2826635 -42.61803246 255.58111191 C-41.70435638 260.63546826 -39.32609155 263.26657993 -35.17730427 266.3582859 C-31.86295225 267.33512063 -28.58716337 267.28171194 -25.16313171 267.26742554 C-24.36836026 267.27195665 -23.57358882 267.27648776 -22.75473338 267.28115618 C-20.08862727 267.29382761 -17.42272471 267.29217805 -14.7565918 267.29052734 C-12.8461989 267.29651092 -10.93580843 267.30331607 -9.02542114 267.31088257 C-3.83319193 267.32856804 1.35897139 267.33323905 6.55122781 267.33451414 C10.88518826 267.33641249 15.21913335 267.34376936 19.55308789 267.35085833 C29.77880804 267.36714987 40.00449297 267.37202662 50.23022461 267.37060547 C60.77870565 267.36940409 71.32698207 267.39050345 81.87541133 267.4220928 C90.93116256 267.44824568 99.98684692 267.45897316 109.04263562 267.45769465 C114.45147877 267.45718469 119.86014015 267.46288663 125.26894569 267.48405075 C130.3571242 267.50341619 135.44494723 267.5035691 140.53313828 267.48901749 C142.39916058 267.48692613 144.26520503 267.4916497 146.13118935 267.5037384 C148.68193707 267.51919108 151.23145917 267.50988314 153.78218079 267.49447632 C154.51779733 267.50476344 155.25341388 267.51505057 156.01132184 267.52564943 C161.51707616 267.45233644 164.57986931 266.06372525 169 263 C171.45515129 259.31727306 171.25799726 257.5075971 171.27415466 253.11186218 C171.27939134 252.40707774 171.28462802 251.70229331 171.29002339 250.97615176 C171.30505499 248.60863726 171.30572922 246.24133829 171.30639648 243.8737793 C171.31401591 242.17865635 171.32244303 240.48353687 171.33161926 238.78842163 C171.35359387 234.17883266 171.36236725 229.56931004 171.36744571 224.9596746 C171.37108609 222.0802791 171.37732451 219.20090107 171.3844471 216.32151222 C171.40895285 206.27756612 171.42199571 196.23367174 171.42553711 186.18969727 C171.42917224 176.82551762 171.45906305 167.46166578 171.50094169 158.09758633 C171.53562792 150.06011984 171.55108527 142.02276205 171.55178314 133.98522121 C171.5525766 129.18387022 171.56134622 124.38285292 171.58978081 119.58157921 C171.6159326 115.06460139 171.61818297 110.54823456 171.60212517 106.03121567 C171.6003083 104.37439836 171.60702289 102.71754617 171.62294388 101.06080437 C171.64337766 98.79617575 171.63287172 96.5336903 171.61473083 94.26908875 C171.61774783 92.36958733 171.61774783 92.36958733 171.62082577 90.43171215 C170.79366064 85.8594267 169.29097154 84.24016443 166 81 C162.34120319 79.78040106 158.97272385 79.84860314 155.1627655 79.84609985 C154.35589226 79.8417176 153.54901901 79.83733535 152.71769506 79.8328203 C150.00474684 79.81942921 147.2918311 79.81325278 144.57885742 79.80712891 C142.63743442 79.79922829 140.69601288 79.79095937 138.7545929 79.78234863 C132.37156579 79.75612756 125.9885321 79.7408226 119.60546875 79.7265625 C117.40929981 79.72120318 115.21313091 79.71582567 113.01696205 79.71043015 C103.88347918 79.68880282 94.74999808 79.67006494 85.61649609 79.65880775 C72.5197167 79.64256023 59.4232336 79.60936112 46.32656592 79.55240691 C37.12139223 79.5137378 27.91629789 79.49417875 18.71104509 79.48888719 C13.21105455 79.48523008 7.71138002 79.47317013 2.21147728 79.44078445 C-2.96207776 79.4107567 -8.1351247 79.40437317 -13.30874825 79.41616821 C-15.20745485 79.41638938 -17.10618468 79.40804884 -19.00481033 79.39051437 C-21.59775879 79.36787106 -24.18885715 79.3760943 -26.78181458 79.39199829 C-27.53269893 79.3781162 -28.28358328 79.36423412 -29.05722171 79.34993136 C-34.79466123 79.43660632 -37.12429323 81.06630432 -41 85 Z " fill="#357DBD" transform="translate(205,352)"/>
<path d="M0 0 C0.73431747 -0.00478363 1.46863495 -0.00956726 2.22520447 -0.01449585 C3.76905474 -0.01788128 5.31297804 -0.00877389 6.85668945 0.01220703 C9.21273045 0.03903843 11.56402602 0.01240144 13.91992188 -0.01953125 C15.4257917 -0.01622765 16.93165859 -0.00982244 18.4375 0 C19.13657974 -0.01012115 19.83565948 -0.02024231 20.55592346 -0.03067017 C24.13018344 0.05455898 26.1078355 0.63465171 29.10400391 2.61450195 C31.95450925 6.85832343 31.78876319 10.12113363 31.640625 15.12109375 C31.63355026 16.02405685 31.62647552 16.92701996 31.6191864 17.85734558 C31.59127694 20.73127338 31.52854607 23.60322722 31.46484375 26.4765625 C31.43975637 28.42900825 31.41694397 30.38148465 31.39648438 32.33398438 C31.34146164 37.11143352 31.25521373 41.88741376 31.15234375 46.6640625 C32.40893799 46.64835205 33.66553223 46.6326416 34.96020508 46.61645508 C39.61736657 46.56220067 44.27450006 46.52772874 48.93188477 46.49926758 C50.94853409 46.48417071 52.96515054 46.46369135 54.98168945 46.43774414 C57.87850046 46.40140039 60.77487781 46.3843453 63.671875 46.37109375 C65.02669731 46.34786797 65.02669731 46.34786797 66.40888977 46.32417297 C67.24953476 46.32394638 68.09017975 46.32371979 68.95629883 46.32348633 C69.69576248 46.31682449 70.43522614 46.31016266 71.19709778 46.30329895 C73.75441118 46.77515031 74.62028885 47.58650306 76.15234375 49.6640625 C76.47507495 52.55794812 76.62036736 55.23233518 76.62109375 58.12890625 C76.62870728 58.95862442 76.6363208 59.78834259 76.64416504 60.64320374 C76.65496675 62.39744051 76.65781884 64.1517416 76.65332031 65.90600586 C76.65234837 68.58882034 76.69395625 71.26877083 76.73828125 73.95117188 C76.74348865 75.65624404 76.74617644 77.36132614 76.74609375 79.06640625 C76.76248901 79.86755356 76.77888428 80.66870087 76.79577637 81.49412537 C76.74765357 85.3768905 76.54346998 87.24082951 73.86523438 90.13891602 C68.95982301 92.89666483 64.41680092 92.79894088 58.88671875 92.76171875 C58.09332092 92.7603038 57.2999231 92.75888885 56.48248291 92.75743103 C53.95573103 92.75184665 51.42906871 92.73929704 48.90234375 92.7265625 C47.1861992 92.72154548 45.47005326 92.71698293 43.75390625 92.71289062 C39.55335106 92.70188234 35.35286258 92.68462846 31.15234375 92.6640625 C31.17852783 93.84959717 31.20471191 95.03513184 31.23168945 96.2565918 C31.32233396 100.66395116 31.37964463 105.0712285 31.42700195 109.47924805 C31.45211374 111.38531357 31.4862102 113.29128309 31.52954102 115.19702148 C31.59034119 117.94018248 31.6185862 120.68206836 31.640625 123.42578125 C31.66643143 124.27492599 31.69223785 125.12407074 31.71882629 125.99894714 C31.72079754 130.17707526 31.49498048 132.15531993 29.10620117 135.70214844 C25.47485759 138.11404008 22.62569586 138.37270778 18.40234375 138.29296875 C17.66661133 138.29538071 16.93087891 138.29779266 16.17285156 138.30027771 C14.62299184 138.29930165 13.07309622 138.28596523 11.5234375 138.26098633 C9.15894462 138.22665833 6.79818961 138.24033935 4.43359375 138.25976562 C2.92316127 138.25286671 1.41273838 138.24319389 -0.09765625 138.23046875 C-0.79987305 138.23542862 -1.50208984 138.24038849 -2.22558594 138.24549866 C-7.01887405 138.13121182 -9.47690282 137.05342794 -12.84765625 133.6640625 C-14.53962129 130.28013242 -13.96752174 126.43928459 -13.9453125 122.71875 C-13.94389755 121.8337381 -13.9424826 120.9487262 -13.94102478 120.03689575 C-13.93541765 117.20425059 -13.92286396 114.37168386 -13.91015625 111.5390625 C-13.90514217 109.62109489 -13.9005791 107.70312604 -13.89648438 105.78515625 C-13.88544591 101.07809468 -13.8681765 96.3710919 -13.84765625 91.6640625 C-15.67139771 91.70333862 -15.67139771 91.70333862 -17.53198242 91.7434082 C-22.05116306 91.8340401 -26.57026369 91.89135898 -31.09008789 91.9387207 C-33.04465248 91.96383531 -34.99912342 91.99793381 -36.95336914 92.04125977 C-39.76602293 92.10204684 -42.57743327 92.13030233 -45.390625 92.15234375 C-46.26164352 92.17815018 -47.13266205 92.2039566 -48.03007507 92.23054504 C-52.25031527 92.23248758 -54.31112633 92.02049187 -57.90380859 89.63378906 C-60.33679217 85.91678175 -60.52175493 82.9606381 -60.40625 78.66015625 C-60.40391861 77.89985611 -60.40158722 77.13955597 -60.39918518 76.35621643 C-60.38947475 74.75502236 -60.36774961 73.15386126 -60.3347168 71.55297852 C-60.28524119 69.10576383 -60.27322981 66.66056076 -60.26757812 64.21289062 C-60.25349298 62.6536245 -60.23728887 61.09437578 -60.21875 59.53515625 C-60.2133873 58.80590439 -60.2080246 58.07665253 -60.20249939 57.32530212 C-60.11672201 53.65389536 -60.01743323 50.70739196 -57.84765625 47.6640625 C-54.77994434 45.61892123 -54.19197577 45.41578976 -50.7434082 45.43701172 C-49.92278397 45.43716278 -49.10215973 45.43731384 -48.25666809 45.43746948 C-46.93465645 45.45295334 -46.93465645 45.45295334 -45.5859375 45.46875 C-44.227248 45.47299484 -44.227248 45.47299484 -42.84111023 45.47732544 C-39.94732467 45.48852286 -37.05384831 45.51362661 -34.16015625 45.5390625 C-32.19857218 45.54909287 -30.23698325 45.55821862 -28.27539062 45.56640625 C-23.46602665 45.58846077 -18.65689388 45.62298761 -13.84765625 45.6640625 C-13.87907715 44.47852783 -13.91049805 43.29299316 -13.94287109 42.0715332 C-14.05164241 37.66425863 -14.12041466 33.25710209 -14.17724609 28.84887695 C-14.20738122 26.94274939 -14.24829822 25.03676008 -14.30029297 23.13110352 C-14.373256 20.38783663 -14.40714383 17.64640532 -14.43359375 14.90234375 C-14.46456146 14.05319901 -14.49552917 13.20405426 -14.5274353 12.32917786 C-14.52998032 7.83397144 -14.28709151 6.18802237 -11.30151367 2.62817383 C-7.38950332 0.40352385 -4.3883047 -0.06371761 0 0 Z " fill="#357DBD" transform="translate(261.84765625,456.3359375)"/>
<path d="M0 0 C6.6 0 13.2 0 20 0 C26.79733366 12.26604364 33.42256743 24.57204058 39.52075195 37.20361328 C39.94960693 38.08130371 40.37846191 38.95899414 40.8203125 39.86328125 C41.19430176 40.63969971 41.56829102 41.41611816 41.95361328 42.21606445 C42.88024975 44.16730618 42.88024975 44.16730618 45 45 C45.40726318 44.20529297 45.81452637 43.41058594 46.23413086 42.59179688 C53.59001614 28.25565481 60.95809983 13.96751083 69 0 C75.93 0 82.86 0 90 0 C90 30.69 90 61.38 90 93 C84.06 93 78.12 93 72 93 C71.67 72.87 71.34 52.74 71 32 C67.04 39.59 63.08 47.18 59 55 C56.0232856 60.3509985 53.05041305 65.69258942 50 71 C46.7 71 43.4 71 40 71 C32.85628728 58.40830434 25.93381628 45.71199652 19 33 C18.67 52.8 18.34 72.6 18 93 C12.06 93 6.12 93 0 93 C0 62.31 0 31.62 0 0 Z " fill="#10365C" transform="translate(442,525)"/>
<path d="M0 0 C0.62132812 0.40992188 1.24265625 0.81984375 1.8828125 1.2421875 C2.50414062 1.63148438 3.12546875 2.02078125 3.765625 2.421875 C10.69884221 7.49422872 14.97950911 16.74822359 16.6328125 25.06640625 C17.94589443 36.49432239 16.8249097 47.09987197 10.0078125 56.6796875 C4.42836895 63.41976718 -2.19990599 68.15471414 -11.1171875 69.2421875 C-20.22676969 69.85978629 -26.94626797 67.97892312 -34.1171875 62.2421875 C-34.4471875 72.8021875 -34.7771875 83.3621875 -35.1171875 94.2421875 C-41.0571875 94.2421875 -46.9971875 94.2421875 -53.1171875 94.2421875 C-53.1171875 62.8921875 -53.1171875 31.5421875 -53.1171875 -0.7578125 C-47.5071875 -0.7578125 -41.8971875 -0.7578125 -36.1171875 -0.7578125 C-35.7871875 0.8921875 -35.4571875 2.5421875 -35.1171875 4.2421875 C-33.8178125 3.0665625 -33.8178125 3.0665625 -32.4921875 1.8671875 C-24.68867105 -5.19313691 -8.87683457 -4.89407229 0 0 Z " fill="#11365C" transform="translate(580.1171875,426.7578125)"/>
<path d="M0 0 C0.62132812 0.40992188 1.24265625 0.81984375 1.8828125 1.2421875 C2.50414062 1.63148438 3.12546875 2.02078125 3.765625 2.421875 C10.77023237 7.54645788 14.41064182 16.14971265 16.2578125 24.4296875 C18.10559372 36.41169151 16.33694019 47.76612366 9.6015625 58.05078125 C3.61057389 65.68929172 -4.06666506 68.29352916 -13.46875 69.55859375 C-21.33996243 69.98970256 -27.93056676 66.88215306 -34.1171875 62.2421875 C-34.4471875 72.8021875 -34.7771875 83.3621875 -35.1171875 94.2421875 C-41.0571875 94.2421875 -46.9971875 94.2421875 -53.1171875 94.2421875 C-53.1171875 62.8921875 -53.1171875 31.5421875 -53.1171875 -0.7578125 C-47.5071875 -0.7578125 -41.8971875 -0.7578125 -36.1171875 -0.7578125 C-35.7871875 0.8921875 -35.4571875 2.5421875 -35.1171875 4.2421875 C-33.8178125 3.0665625 -33.8178125 3.0665625 -32.4921875 1.8671875 C-24.68867105 -5.19313691 -8.87683457 -4.89407229 0 0 Z " fill="#11395E" transform="translate(657.1171875,426.7578125)"/>
<path d="M0 0 C5.94 0 11.88 0 18 0 C18 32.01 18 64.02 18 97 C12.72 97 7.44 97 2 97 C1.505 93.535 1.505 93.535 1 90 C0.154375 90.763125 -0.69125 91.52625 -1.5625 92.3125 C-8.14449751 98.25235141 -15.553168 98.7070898 -24.05078125 98.40234375 C-32.91917954 97.4988373 -38.70405986 93.30979233 -44.30859375 86.5390625 C-51.06430876 76.39768893 -52.64710255 63.3296329 -50.31640625 51.54296875 C-47.46188874 41.36856817 -43.27568469 34.75619058 -34.2265625 29.1875 C-27.42902037 25.5621442 -20.42298284 25.16222955 -13 26.6875 C-9 28 -9 28 -1 33 C-0.67 22.11 -0.34 11.22 0 0 Z " fill="#11375C" transform="translate(671,521)"/>
<path d="M0 0 C8.50093354 6.95530926 13.86800265 15.0792898 15.23046875 26.15625 C15.82171496 36.9646456 13.33229968 46.19551049 6.4375 54.6875 C-1.4904535 62.92300342 -10.86454171 66.31625547 -22.1875 66.6875 C-32.30880033 66.43474223 -40.86417437 63.24624362 -48.25 56.25 C-55.21851724 48.89344467 -58.41920413 40.32824747 -58.75 30.25 C-58.3909832 19.65321382 -54.88662353 10.72631273 -47.25 3.25 C-32.55738231 -7.86676537 -16.14266751 -8.69220558 0 0 Z " fill="#11365C" transform="translate(739.25,429.75)"/>
<path d="M0 0 C6.27 0 12.54 0 19 0 C27.63693928 21.74964345 35.87233504 43.63482759 43.875 65.625 C44.33304582 66.88073745 44.79117538 68.13644437 45.24938965 69.39212036 C46.54256946 72.93969443 47.83086352 76.48899758 49.1171875 80.0390625 C49.51028107 81.11769058 49.90337463 82.19631866 50.30838013 83.30763245 C50.66407074 84.29359909 51.01976135 85.27956573 51.38623047 86.29541016 C51.69930145 87.15945465 52.01237244 88.02349915 52.33493042 88.91372681 C53 91 53 91 53 93 C46.4 93 39.8 93 33 93 C31.02 87.06 29.04 81.12 27 75 C9.675 74.505 9.675 74.505 -8 74 C-8.99 77.63 -9.98 81.26 -11 85 C-11.99 87.64 -12.98 90.28 -14 93 C-20.6 93 -27.2 93 -34 93 C-31.52521077 84.08348 -28.26902521 75.50606264 -24.99066162 66.86221313 C-23.30198233 62.40944125 -21.62403839 57.95262561 -19.9453125 53.49609375 C-19.60928009 52.60476242 -19.27324768 51.71343109 -18.92703247 50.79508972 C-15.41907859 41.47947591 -11.99326133 32.13449942 -8.58984375 22.78027344 C-5.80993122 15.15327701 -2.93198114 7.56993706 0 0 Z " fill="#10375D" transform="translate(468,401)"/>
<path d="M0 0 C5.29112204 2.74731337 9.09375244 6.28125733 11 12 C11 18.93 11 25.86 11 33 C46.64 33 82.28 33 119 33 C119 26.4 119 19.8 119 13 C121.95529755 6.10430573 123.42710428 3.28644786 130 0 C134.53348826 -0.55308557 138.07356732 -0.42758431 142.25 1.5 C146.32050044 5.20045494 149.54592427 9.04050767 150.40185547 14.61914062 C150.49010891 17.43327869 150.43761812 20.1867245 150.3125 23 C150.1578125 27.95 150.1578125 27.95 150 33 C158.58 33 167.16 33 176 33 C176 33.33 176 33.66 176 34 C167.42 34 158.84 34 150 34 C150 38.29 150 42.58 150 47 C148.33551987 52.91815157 145.86923901 55.5509557 141 59 C136.64749493 60.45083502 132.41886245 60.85342929 128.0625 59.31640625 C123.25019323 56.81691071 122.36908519 55.05362778 119 50 C119 44.72 119 39.44 119 34 C83.36 34 47.72 34 11 34 C11 38.62 11 43.24 11 48 C9.34371166 52.90261348 8.03858153 55.65403057 3.75 58.5 C-0.32675141 60.46417359 -3.51800422 60.49799953 -8 60 C-13.67507225 57.99703332 -17.30675089 54.38649821 -20 49 C-20.13553254 46.31047363 -20.21269864 43.64812332 -20.23828125 40.95703125 C-20.246353 40.1552092 -20.25442474 39.35338715 -20.26274109 38.52726746 C-20.27658453 36.82671267 -20.28730553 35.12613007 -20.29516602 33.42553711 C-20.312319 30.83978534 -20.35619346 28.25533241 -20.40039062 25.66992188 C-20.41052315 24.01563438 -20.4190375 22.36133603 -20.42578125 20.70703125 C-20.44328934 19.94010452 -20.46079742 19.1731778 -20.47883606 18.38301086 C-20.45658711 12.80258374 -19.16817675 9.60960835 -16 5 C-11.13249607 0.48865489 -6.61649365 -0.90396118 0 0 Z " fill="#236AA9" transform="translate(205,352)"/>
<path d="M0 0 C6.8999138 5.74357466 10.66298055 11.70089154 12.80859375 20.390625 C12.80859375 25.340625 12.80859375 30.290625 12.80859375 35.390625 C-3.36140625 35.390625 -19.53140625 35.390625 -36.19140625 35.390625 C-33.2924201 44.43226267 -33.2924201 44.43226267 -27.19140625 49.390625 C-20.59993208 52.05256649 -14.94223913 51.42808941 -8.25390625 49.578125 C-5.79375318 48.16167323 -5.20090297 46.99849152 -4.19140625 44.390625 C-3.19140625 43.390625 -3.19140625 43.390625 -1.3359375 43.2578125 C3.1584412 43.27286905 7.38476065 43.48317206 11.80859375 44.390625 C11.32913124 49.50489176 9.03799695 53.49858482 5.80859375 57.390625 C-4.07040246 65.53363818 -13.35781823 66.41232148 -25.77148438 65.67626953 C-33.76770868 64.73240528 -40.50329212 60.04504724 -45.796875 54.171875 C-53.50738432 44.32315721 -54.15271957 33.43107427 -53.19140625 21.390625 C-51.01545108 11.96972819 -45.03135597 3.92470715 -37.19140625 -1.609375 C-24.87738755 -8.07205148 -11.55052643 -8.48273956 0 0 Z " fill="#11365C" transform="translate(597.19140625,553.609375)"/>
<path d="M0 0 C5.74873508 5.0331249 8.02104623 10.51618997 9 18 C9.13406693 21.69583033 9.11638645 25.38810237 9.09765625 29.0859375 C9.0962413 30.14285797 9.09482635 31.19977844 9.09336853 32.28872681 C9.0877894 35.65084716 9.07524069 39.01289991 9.0625 42.375 C9.05748231 44.66015529 9.05291987 46.94531162 9.04882812 49.23046875 C9.03782679 54.82033838 9.02057649 60.41015775 9 66 C3.06 66 -2.88 66 -9 66 C-9.04898438 63.0609375 -9.09796875 60.121875 -9.1484375 57.09375 C-9.20254428 54.22749007 -9.25981359 51.36130942 -9.31738281 48.49511719 C-9.35551757 46.51275612 -9.39039669 44.5303295 -9.421875 42.54785156 C-9.46786395 39.68791376 -9.52580072 36.82842118 -9.5859375 33.96875 C-9.59748871 33.09134155 -9.60903992 32.21393311 -9.62094116 31.30993652 C-9.80438297 22.19574446 -9.80438297 22.19574446 -13.4375 14.0625 C-17.23496992 11.48022046 -21.58304972 11.41441947 -26 12 C-30.5286654 14.13616293 -32.53020369 16.27400595 -34.39321899 20.90335083 C-35.55146285 24.90550483 -35.48246942 28.94982977 -35.51171875 33.08984375 C-35.52966995 34.03436905 -35.54762115 34.97889435 -35.56611633 35.95204163 C-35.61998156 38.94715 -35.65403858 41.94210119 -35.6875 44.9375 C-35.72069407 46.9772353 -35.75518565 49.01694992 -35.79101562 51.05664062 C-35.87569435 56.03764657 -35.94261872 61.01860783 -36 66 C-41.61 66 -47.22 66 -53 66 C-53 43.56 -53 21.12 -53 -2 C-47.39 -2 -41.78 -2 -36 -2 C-35.67 -0.35 -35.34 1.3 -35 3 C-34.39671875 2.57847656 -33.7934375 2.15695312 -33.171875 1.72265625 C-32.37265625 1.17480469 -31.5734375 0.62695312 -30.75 0.0625 C-29.96109375 -0.48277344 -29.1721875 -1.02804687 -28.359375 -1.58984375 C-19.97741946 -6.5995887 -8.05189833 -4.89990966 0 0 Z " fill="#10355B" transform="translate(847,428)"/>
<path d="M0 0 C6.06870706 5.36199995 9.32181962 10.80417217 10.11328125 18.8671875 C-5.23978959 20.09816868 -5.23978959 20.09816868 -9.17578125 17.15625 C-10.55424783 15.11435031 -11.70920265 13.02817211 -12.88671875 10.8671875 C-16.77168302 8.47644026 -20.38784026 8.47254904 -24.88671875 8.8671875 C-30.39185698 10.91812135 -33.43931876 13.8530678 -35.9765625 19.13671875 C-38.06040334 25.38824127 -37.77904733 33.10033836 -35.76171875 39.3671875 C-33.3155151 43.93343431 -30.57723022 46.52193177 -25.88671875 48.8671875 C-20.96485041 49.40717665 -16.99259557 49.36985878 -12.44921875 47.3046875 C-9.19923215 44.53415219 -9.19923215 44.53415219 -6.88671875 37.8671875 C-1.27671875 38.1971875 4.33328125 38.5271875 10.11328125 38.8671875 C8.85785648 47.65516088 6.21154354 54.11183546 -0.98046875 59.58203125 C-1.60953125 60.00613281 -2.23859375 60.43023438 -2.88671875 60.8671875 C-3.47453125 61.28097656 -4.06234375 61.69476562 -4.66796875 62.12109375 C-12.3260658 66.48195457 -22.38816982 66.03311326 -30.88671875 64.8671875 C-39.49869841 62.40263609 -45.94709105 57.29448312 -50.88671875 49.8671875 C-55.81114585 40.21933032 -57.62561452 29.52826545 -55.203125 18.85546875 C-51.73746956 8.5447843 -45.65695314 0.97706354 -35.99609375 -4.1328125 C-23.80768179 -9.64409443 -10.78406999 -7.70017076 0 0 Z " fill="#11365C" transform="translate(786.88671875,554.1328125)"/>
<path d="M0 0 C5.94 0 11.88 0 18 0 C18 5.94 18 11.88 18 18 C23.61 18 29.22 18 35 18 C35.09765625 28.83984375 35.09765625 28.83984375 35 32 C34 33 34 33 30.40234375 33.09765625 C28.91403133 33.0909822 27.42573568 33.07902183 25.9375 33.0625 C24.79958008 33.05573242 24.79958008 33.05573242 23.63867188 33.04882812 C21.75908129 33.0370068 19.87953101 33.01907078 18 33 C18.04417668 37.76955757 18.11403164 42.53779423 18.20751953 47.30664062 C18.23571347 48.92827837 18.25693594 50.55005313 18.27099609 52.171875 C18.29244872 54.50592105 18.33910575 56.83832261 18.390625 59.171875 C18.39185364 59.89493835 18.39308228 60.61800171 18.39434814 61.36297607 C18.49455928 64.8208231 18.74335416 66.67444364 20.91308594 69.42675781 C24.07861481 71.81312515 26.21531757 72.21163106 30.125 72.5625 C31.73375 72.706875 33.3425 72.85125 35 73 C35 77.95 35 82.9 35 88 C11.32360218 88.43047996 11.32360218 88.43047996 4 82 C0.49388387 76.65610552 0.60457955 71.95235671 0.70703125 65.7890625 C0.71127609 64.82092621 0.71552094 63.85278992 0.71989441 62.85531616 C0.73662044 59.77825527 0.77426169 56.70186128 0.8125 53.625 C0.82755468 51.53256158 0.84124171 49.44011283 0.85351562 47.34765625 C0.88650412 42.23151582 0.93824472 37.11587079 1 32 C-2.96 32 -6.92 32 -11 32 C-11 27.38 -11 22.76 -11 18 C-7.37 18 -3.74 18 0 18 C0 12.06 0 6.12 0 0 Z " fill="#11385D" transform="translate(872,407)"/>
<path d="M0 0 C5.94 0 11.88 0 18 0 C18 22.77 18 45.54 18 69 C12.06 69 6.12 69 0 69 C0 46.23 0 23.46 0 0 Z " fill="#10345A" transform="translate(703,549)"/>
<path d="M0 0 C5.19582081 5.19582081 8.11496729 10.5548322 8.375 17.9375 C8.15403668 24.25897247 6.72139339 28.96150783 2.625 33.8125 C-2.5759012 38.14658433 -5.7830803 39.5288674 -12.57421875 39.27734375 C-18.667892 38.58064359 -21.91389547 35.37557468 -25.703125 30.9140625 C-29.53356819 25.26069755 -29.71767142 19.62256283 -29 13 C-27.28430112 6.41459293 -23.82592819 1.57732433 -18 -2 C-11.5172913 -4.06439656 -5.91711768 -3.2872876 0 0 Z " fill="#F4F4F5" transform="translate(728,442)"/>
<path d="M0 0 C5.94 0 11.88 0 18 0 C18 22.44 18 44.88 18 68 C12.06 68 6.12 68 0 68 C0 45.56 0 23.12 0 0 Z " fill="#0E345A" transform="translate(763,426)"/>
<path d="M0 0 C5.24950384 3.49966923 8.50357462 7.68735276 9.8125 13.875 C10.58780463 21.97416446 9.24586165 28.72927274 5.125 35.75 C1.04047187 39.50335018 -3.31897628 40.64553218 -8.75 41.3125 C-13.89518507 40.65765826 -17.46276204 39.00425124 -20.703125 35.00390625 C-23.05511316 31.42861391 -24.87080879 28.20311327 -25.1875 23.875 C-25.2803125 22.89080078 -25.2803125 22.89080078 -25.375 21.88671875 C-25.79014421 14.37520316 -23.52881909 8.69658967 -18.75 2.9375 C-13.00133932 -1.68947079 -6.90400809 -2.43670874 0 0 Z " fill="#F3F3F4" transform="translate(569.1875,440.125)"/>
<path d="M0 0 C4.38759036 2.39931412 6.27632063 6.41772567 7.79296875 10.98046875 C8.7745932 20.02174659 8.62438148 28.55464444 2.79296875 35.98046875 C-0.5640408 39.17087733 -4.20596895 40.21088273 -8.76953125 40.41796875 C-14.52102657 40.11525847 -17.91949009 38.29727221 -21.95703125 34.16796875 C-26.65291733 27.51546347 -27.02564222 20.94146041 -26.20703125 12.98046875 C-24.51393788 6.57364953 -21.64315648 2.6816604 -16.20703125 -1.01953125 C-10.49373571 -2.9239631 -5.46425489 -2.25123074 0 0 Z " fill="#F3F4F4" transform="translate(647.20703125,441.01953125)"/>
<path d="M0 0 C4.56994669 4.12409823 7.34620991 7.32344194 7.80078125 13.60546875 C8.06878674 27.66870399 8.06878674 27.66870399 3.5625 33.3125 C1.0625 35.6875 1.0625 35.6875 -1.4375 37.3125 C-2.035625 37.725 -2.63375 38.1375 -3.25 38.5625 C-7.97215961 40.18152615 -12.11565718 39.79548103 -16.6875 38.125 C-21.29732991 35.08670301 -23.76355217 31.52113594 -25.4375 26.3125 C-25.65197731 23.61899927 -25.76248534 21.06434159 -25.75 18.375 C-25.76611328 17.68470703 -25.78222656 16.99441406 -25.79882812 16.28320312 C-25.80477889 10.00514751 -24.05924193 6.13695967 -19.9375 1.5 C-14.51981175 -3.24047722 -6.25502737 -3.0706498 0 0 Z " fill="#F3F4F4" transform="translate(664.4375,564.6875)"/>
<path d="M0 0 C2.65027794 2.65027794 3.43056359 5.65015407 4.6015625 9.125 C4.9635524 10.17905029 4.9635524 10.17905029 5.33285522 11.25439453 C5.84155247 12.73960825 6.34739256 14.22580317 6.85058594 15.71289062 C7.62272471 17.9932803 8.40435493 20.27024474 9.1875 22.546875 C9.68025145 23.98939081 10.17245755 25.43209306 10.6640625 26.875 C10.89839996 27.55836426 11.13273743 28.24172852 11.37417603 28.94580078 C13 33.76804968 13 33.76804968 13 36 C5.08 36 -2.84 36 -11 36 C-7.625 23.625 -7.625 23.625 -5.95703125 18.45703125 C-5.60576172 17.36455078 -5.25449219 16.27207031 -4.89257812 15.14648438 C-4.53615234 14.04626953 -4.17972656 12.94605469 -3.8125 11.8125 C-3.44447266 10.66974609 -3.07644531 9.52699219 -2.69726562 8.34960938 C-1.80035596 5.56569497 -0.90123427 2.78251677 0 0 Z " fill="#F2F3F4" transform="translate(477,424)"/>
<path d="M0 0 C2.99456414 1.24773506 4.39720624 2.23280794 6.375 4.75 C7.31697802 8.14112087 6.84752199 10.60991203 6 14 C3.68324659 16.83989127 1.75273691 18.82093847 -1.98828125 19.203125 C-6.86823039 19.30154414 -10.01464415 19.13997734 -14 16 C-16 14 -16 14 -16.375 10.1875 C-16.28397523 6.01553142 -15.03050306 3.94137062 -12 1 C-8.31313877 -0.84343062 -4.03302333 -0.3556682 0 0 Z " fill="#10345A" transform="translate(717,520)"/>
<path d="M0 0 C0.7425 0.556875 1.485 1.11375 2.25 1.6875 C3.1471875 2.2753125 3.1471875 2.2753125 4.0625 2.875 C5.70272616 5.37850309 5.85236407 7.73148738 5.7109375 10.6796875 C5.06438186 13.49604005 3.64357147 15.19156885 1.296875 16.83984375 C-2.94522747 18.59659229 -7.2818991 18.44238463 -11.75 17.6875 C-14.75197464 15.88631522 -16.20166366 14.78417268 -17.75 11.6875 C-18.16906739 7.91589349 -18.06200824 6.17779866 -16 2.9375 C-11.32893322 -1.73356678 -6.22065708 -2.96894997 0 0 Z " fill="#103359" transform="translate(778.75,397.3125)"/>
<path d="M0 0 C2.94469867 2.03324432 4.7201367 3.77882882 6.625 6.8125 C6.955 8.7925 7.285 10.7725 7.625 12.8125 C-2.935 12.8125 -13.495 12.8125 -24.375 12.8125 C-23.24101307 7.14256536 -23.24101307 7.14256536 -20.5625 4.125 C-20.06105469 3.54363281 -19.55960938 2.96226562 -19.04296875 2.36328125 C-13.70210685 -2.60234445 -6.57486154 -2.31337721 0 0 Z " fill="#F4F5F6" transform="translate(585.375,563.1875)"/>
<path d="M0 0 C0.74886475 0.00523682 1.49772949 0.01047363 2.26928711 0.01586914 C3.07817383 0.0190918 3.88706055 0.02231445 4.72045898 0.02563477 C5.5705957 0.03401367 6.42073242 0.04239258 7.29663086 0.05102539 C8.15063477 0.05553711 9.00463867 0.06004883 9.88452148 0.06469727 C12.00108749 0.07652166 14.11761771 0.0944577 16.23413086 0.11352539 C16.23413086 0.44352539 16.23413086 0.77352539 16.23413086 1.11352539 C10.34501945 2.13771868 5.41497162 2.11352539 -0.76586914 2.11352539 C-0.76586914 24.55352539 -0.76586914 46.99352539 -0.76586914 70.11352539 C4.84413086 70.11352539 10.45413086 70.11352539 16.23413086 70.11352539 C16.23413086 55.92352539 16.23413086 41.73352539 16.23413086 27.11352539 C17.22413086 27.44352539 18.21413086 27.77352539 19.23413086 28.11352539 C19.28365609 33.5761585 19.31990982 39.03866021 19.34399414 44.50146484 C19.35403701 46.35890989 19.3676739 48.21633918 19.38500977 50.07373047 C19.40933347 52.7471913 19.42063119 55.42044265 19.42944336 58.09399414 C19.43976593 58.92126511 19.4500885 59.74853607 19.46072388 60.60087585 C19.46087494 61.38130753 19.461026 62.1617392 19.46118164 62.96582031 C19.46562286 63.64754807 19.47006409 64.32927582 19.47463989 65.03166199 C19.23413086 67.11352539 19.23413086 67.11352539 17.23413086 72.11352539 C10.63413086 72.11352539 4.03413086 72.11352539 -2.76586914 72.11352539 C-2.78842175 62.87354668 -2.80678515 53.63358611 -2.81768131 44.39358616 C-2.82290975 40.10352624 -2.83000667 35.81348606 -2.84130859 31.5234375 C-2.85213889 27.38673139 -2.85814628 23.25004431 -2.86074638 19.11332512 C-2.86260038 17.53160235 -2.8662205 15.94988068 -2.8715992 14.36816597 C-2.87881154 12.16029701 -2.87986 9.95250766 -2.87939453 7.74462891 C-2.88161514 6.48554214 -2.88383575 5.22645538 -2.88612366 3.92921448 C-2.72579607 0.17523782 -2.72579607 0.17523782 0 0 Z " fill="#E6EBEF" transform="translate(794.765869140625,423.886474609375)"/>
<path d="M0 0 C5.61 0 11.22 0 17 0 C17 1.65 17 3.3 17 5 C16.67 3.68 16.34 2.36 16 1 C11.38 1 6.76 1 2 1 C2 31.36 2 61.72 2 93 C6.95 93 11.9 93 17 93 C17 82.77 17 72.54 17 62 C17.33 62 17.66 62 18 62 C18 72.89 18 83.78 18 95 C12.06 95 6.12 95 0 95 C0 63.65 0 32.3 0 0 Z " fill="#06204A" transform="translate(604,426)"/>
<path d="M0 0 C0.33 0 0.66 0 1 0 C1.33 31.02 1.66 62.04 2 94 C7.94 94.33 13.88 94.66 20 95 C20 84.11 20 73.22 20 62 C22.64 63.65 25.28 65.3 28 67 C29.64455275 67.71949183 31.3024406 68.41646396 33 69 C31.4375 69.75 31.4375 69.75 29 70 C26.56166479 68.82776875 24.32136572 67.39769511 22 66 C22.00785522 67.25659424 22.00785522 67.25659424 22.01586914 68.53857422 C22.03290014 71.64338936 22.04544482 74.74818071 22.05493164 77.85302734 C22.06244036 79.85906551 22.0751447 81.86508202 22.08789062 83.87109375 C22.09272461 85.75634766 22.09272461 85.75634766 22.09765625 87.6796875 C22.10551147 89.42354736 22.10551147 89.42354736 22.11352539 91.20263672 C22 94 22 94 21 96 C17.68751813 96.02888146 14.37506833 96.04675799 11.0625 96.0625 C10.11697266 96.07087891 9.17144531 96.07925781 8.19726562 96.08789062 C6.84858398 96.09272461 6.84858398 96.09272461 5.47265625 96.09765625 C4.64000244 96.10289307 3.80734863 96.10812988 2.94946289 96.11352539 C1 96 1 96 0 95 C-0.09526806 92.04753646 -0.12552452 89.11851579 -0.11352539 86.16577148 C-0.11367142 85.23903625 -0.11381744 84.31230103 -0.1139679 83.35748291 C-0.11326838 80.27866313 -0.10547421 77.19990303 -0.09765625 74.12109375 C-0.09579221 71.99259982 -0.09436824 69.86410547 -0.09336853 67.73561096 C-0.08954228 62.1213768 -0.07971108 56.50716832 -0.06866455 50.89294434 C-0.05845273 45.16886747 -0.0538714 39.44478647 -0.04882812 33.72070312 C-0.03808891 22.48045744 -0.0210112 11.24023085 0 0 Z " fill="#FDFDFC" transform="translate(525,426)"/>
<path d="M0 0 C0.99 0.33 1.98 0.66 3 1 C3.04952523 6.46263311 3.08577896 11.92513482 3.10986328 17.38793945 C3.11990615 19.24538449 3.13354304 21.10281379 3.15087891 22.96020508 C3.17520261 25.63366591 3.18650033 28.30691726 3.1953125 30.98046875 C3.20563507 31.80773972 3.21595764 32.63501068 3.22659302 33.48735046 C3.22674408 34.26778214 3.22689514 35.04821381 3.22705078 35.85229492 C3.231492 36.53402267 3.23593323 37.21575043 3.24050903 37.9181366 C3 40 3 40 1 45 C-4.94 44.67 -10.88 44.34 -17 44 C-17 43.67 -17 43.34 -17 43 C-11.39 43 -5.78 43 0 43 C0 28.81 0 14.62 0 0 Z " fill="#D0D8DF" transform="translate(811,451)"/>
<path d="M0 0 C0.0493651 4.94790177 0.08570269 9.89566083 0.10986328 14.84375 C0.11993317 16.52769466 0.13358988 18.21162179 0.15087891 19.89550781 C0.17508426 22.31319501 0.18647296 24.73065143 0.1953125 27.1484375 C0.20563507 27.9036972 0.21595764 28.65895691 0.22659302 29.43710327 C0.22699318 31.2929398 0.12222716 33.1481928 0 35 C-0.66 35.66 -1.32 36.32 -2 37 C-2 25.45 -2 13.9 -2 2 C-14.54 2 -27.08 2 -40 2 C-40 1.67 -40 1.34 -40 1 C-34.62484606 0.85724976 -29.24968321 0.7148417 -23.87451172 0.57275391 C-22.04508213 0.52434598 -20.21565503 0.47584375 -18.38623047 0.42724609 C-15.76009761 0.35750056 -13.13395605 0.28809169 -10.5078125 0.21875 C-9.27649094 0.18593933 -9.27649094 0.18593933 -8.02029419 0.15246582 C-2.22774341 0 -2.22774341 0 0 0 Z " fill="#FCFCFB" transform="translate(248,548)"/>
<path d="M0 0 C4.29 0.33 8.58 0.66 13 1 C13 5.95 13 10.9 13 16 C-9.87322275 16.41587678 -9.87322275 16.41587678 -18 10 C-17.67 9.34 -17.34 8.68 -17 8 C-15.515 8.99 -15.515 8.99 -14 10 C-11.88719655 10.63292383 -11.88719655 10.63292383 -10 11 C-10 11.66 -10 12.32 -10 13 C-3.07 13.33 3.86 13.66 11 14 C11 10.04 11 6.08 11 2 C8.834375 2.061875 8.834375 2.061875 6.625 2.125 C4.1640625 2.1953125 4.1640625 2.1953125 2 2 C1.34 1.34 0.68 0.68 0 0 Z " fill="#172A4F" transform="translate(894,479)"/>
<path d="M0 0 C0.33 0 0.66 0 1 0 C1 6.6 1 13.2 1 20 C-5.6 20 -12.2 20 -19 20 C-19 19.34 -19 18.68 -19 18 C-13.06 18 -7.12 18 -1 18 C-1.03951482 12.82441015 -1.03951482 12.82441015 -1.09008789 7.64892578 C-1.11111111 2.22222222 -1.11111111 2.22222222 0 0 Z " fill="#FCFBFA" transform="translate(323,365)"/>
<path d="M0 0 C0.33 0 0.66 0 1 0 C1 3.96 1 7.92 1 12 C-8.57 12 -18.14 12 -28 12 C-24.08780231 10.04390115 -22.74717824 9.75836469 -18.578125 9.8046875 C-17.55332031 9.81113281 -16.52851563 9.81757813 -15.47265625 9.82421875 C-14.40917969 9.84097656 -13.34570312 9.85773438 -12.25 9.875 C-10.63158203 9.88853516 -10.63158203 9.88853516 -8.98046875 9.90234375 C-6.32008722 9.92588695 -3.66015664 9.95877201 -1 10 C-1.01160156 9.36191406 -1.02320313 8.72382813 -1.03515625 8.06640625 C-1.04417969 7.24011719 -1.05320313 6.41382813 -1.0625 5.5625 C-1.07410156 4.73878906 -1.08570313 3.91507812 -1.09765625 3.06640625 C-1 1 -1 1 0 0 Z " fill="#FDFBF9" transform="translate(184,373)"/>
<path d="M0 0 C0.99 0.33 1.98 0.66 3 1 C3 3.31 3 5.62 3 8 C7.29 8 11.58 8 16 8 C16.33 8.66 16.66 9.32 17 10 C11.72 10 6.44 10 1 10 C0.67 7.69 0.34 5.38 0 3 C-1.98 3.99 -1.98 3.99 -4 5 C-2.68 3.35 -1.36 1.7 0 0 Z " fill="#07204B" transform="translate(672,608)"/>
<path d="M0 0 C6.27 0 12.54 0 19 0 C21 5 21 5 20 8 C19.67 6.35 19.34 4.7 19 3 C13.06 3.33 7.12 3.66 1 4 C0.67 2.68 0.34 1.36 0 0 Z " fill="#234368" transform="translate(468,401)"/>
<path d="M0 0 C0.66 0 1.32 0 2 0 C2 0.66 2 1.32 2 2 C8.6 2 15.2 2 22 2 C22 2.66 22 3.32 22 4 C14.74 4 7.48 4 0 4 C0 2.68 0 1.36 0 0 Z " fill="#FCFCFA" transform="translate(355,381)"/>
<path d="M0 0 C0.33 0.66 0.66 1.32 1 2 C0.67 2.66 0.34 3.32 0 4 C-2.62561109 4.08074203 -5.24875676 4.1403623 -7.875 4.1875 C-8.99455078 4.22520508 -8.99455078 4.22520508 -10.13671875 4.26367188 C-12.3046875 4.29296875 -12.3046875 4.29296875 -16 4 C-16.66 3.01 -17.32 2.02 -18 1 C-12.06 0.67 -6.12 0.34 0 0 Z " fill="#EAEEF0" transform="translate(460,617)"/>
<path d="M0 0 C0.33 0 0.66 0 1 0 C1 10.23 1 20.46 1 31 C0.01 31 -0.98 31 -2 31 C-2.66 30.34 -3.32 29.68 -4 29 C-2.68 29 -1.36 29 0 29 C0 19.43 0 9.86 0 0 Z " fill="#EAECED" transform="translate(668,521)"/>
<path d="M0 0 C0.33 0 0.66 0 1 0 C0.979375 1.11375 0.95875 2.2275 0.9375 3.375 C0.73619282 6.83215921 0.73619282 6.83215921 2 9 C-0.90669462 9.85305168 -3.31048873 10.07289715 -6.328125 9.87890625 C-7.12734375 9.83056641 -7.9265625 9.78222656 -8.75 9.73242188 C-9.575 9.67634766 -10.4 9.62027344 -11.25 9.5625 C-12.09046875 9.51029297 -12.9309375 9.45808594 -13.796875 9.40429688 C-15.8649352 9.27504311 -17.9325222 9.13825726 -20 9 C-20 8.67 -20 8.34 -20 8 C-13.73 8 -7.46 8 -1 8 C-0.67 5.36 -0.34 2.72 0 0 Z " fill="#C7D3DB" transform="translate(783,486)"/>
<path d="M0 0 C4.92127034 -0.16682272 8.50343896 -0.24828052 13 2 C13 2.66 13 3.32 13 4 C12.0409375 3.7525 12.0409375 3.7525 11.0625 3.5 C7.02413348 2.84067485 3.08192742 2.91996221 -1 3 C-0.67 2.01 -0.34 1.02 0 0 Z " fill="#E6EAED" transform="translate(558,439)"/>
<path d="M0 0 C1.0625 1.875 1.0625 1.875 2 4 C1.67 4.66 1.34 5.32 1 6 C0.61369961 8.03583123 0.26403216 10.0787318 -0.0625 12.125 C-0.23910156 13.22070312 -0.41570313 14.31640625 -0.59765625 15.4453125 C-0.73042969 16.28835938 -0.86320313 17.13140625 -1 18 C-1.33 18 -1.66 18 -2 18 C-2.3690205 5.33029613 -2.3690205 5.33029613 0 0 Z " fill="#E5EAED" transform="translate(623,448)"/>
<path d="M0 0 C-2.05233685 2.2477975 -3.00667261 3.0022242 -6 4 C-7.72795352 4.06802967 -9.45835365 4.08495645 -11.1875 4.0625 C-12.53908203 4.04896484 -12.53908203 4.04896484 -13.91796875 4.03515625 C-14.60503906 4.02355469 -15.29210937 4.01195312 -16 4 C-16 3.67 -16 3.34 -16 3 C-14.02 2.67 -12.04 2.34 -10 2 C-10 1.67 -10 1.34 -10 1 C-8.71073008 0.63720544 -7.41846728 0.28503302 -6.125 -0.0625 C-5.40570312 -0.25972656 -4.68640625 -0.45695312 -3.9453125 -0.66015625 C-2 -1 -2 -1 0 0 Z " fill="#E6EBED" transform="translate(656,494)"/>
<path d="M0 0 C5.8022175 -0.36263859 9.63999211 0.74315457 15 3 C14.01 3.66 13.02 4.32 12 5 C12 4.34 12 3.68 12 3 C8.04 3 4.08 3 0 3 C0 2.01 0 1.02 0 0 Z " fill="#E6EBEF" transform="translate(634,439)"/>
<path d="M0 0 C6.6 0 13.2 0 20 0 C20 0.33 20 0.66 20 1 C18.87980469 1.06058594 17.75960937 1.12117188 16.60546875 1.18359375 C15.13280016 1.26801424 13.66014456 1.35266149 12.1875 1.4375 C11.44951172 1.47681641 10.71152344 1.51613281 9.95117188 1.55664062 C6.76928658 1.74381035 4.03837622 1.98720793 1 3 C0.67 2.01 0.34 1.02 0 0 Z " fill="#FDFCFC" transform="translate(601,424)"/>
<path d="M0 0 C1.03125 0.309375 2.0625 0.61875 3.125 0.9375 C6.38972557 1.87502812 9.63613462 2.50772702 13 3 C12.67 3.66 12.34 4.32 12 5 C7.25081338 4.53439347 3.89217595 3.83067342 0 1 C0 0.67 0 0.34 0 0 Z " fill="#0D244A" transform="translate(746,613)"/>
<path d="M0 0 C0.33 1.98 0.66 3.96 1 6 C0.01 6.66 -0.98 7.32 -2 8 C-2 6.02 -2 4.04 -2 2 C-4.31 2 -6.62 2 -9 2 C-9 1.67 -9 1.34 -9 1 C-2.25 0 -2.25 0 0 0 Z " fill="#E6EBEF" transform="translate(813,424)"/>
<path d="M0 0 C-0.0625 1.75 -0.0625 1.75 -1 4 C-3.24164322 5.59501537 -5.53566643 6.74543018 -8 8 C-6.48291727 4.46014029 -4.24676932 0 0 0 Z " fill="#0A2448" transform="translate(559,554)"/>
<path d="M0 0 C0.33 0.66 0.66 1.32 1 2 C0.0625 4.625 0.0625 4.625 -1 7 C1.97 7 4.94 7 8 7 C8 7.33 8 7.66 8 8 C4.7 8.33 1.4 8.66 -2 9 C-3 6 -3 6 -1.5625 2.8125 C-1.046875 1.884375 -0.53125 0.95625 0 0 Z " fill="#0C2751" transform="translate(562,569)"/>
<path d="M0 0 C1 4 1 4 0.3125 6.1875 C-1 8 -1 8 -5 9 C-3.35 6.03 -1.7 3.06 0 0 Z " fill="#10284C" transform="translate(654,469)"/>
<path d="M0 0 C0.33 0 0.66 0 1 0 C1.33 3.3 1.66 6.6 2 10 C1.01 9.67 0.02 9.34 -1 9 C-0.67 6.03 -0.34 3.06 0 0 Z " fill="#EBEEF1" transform="translate(620,589)"/>
<path d="M0 0 C0.33 0 0.66 0 1 0 C1.125 3.375 1.125 3.375 1 7 C0.34 7.66 -0.32 8.32 -1 9 C-1.66 9 -2.32 9 -3 9 C-2.01 6.03 -1.02 3.06 0 0 Z " fill="#E8EDEF" transform="translate(609,598)"/>
<path d="M0 0 C1.96713413 2.95070119 2.65358161 4.53581611 3 8 C2.34 8.99 1.68 9.98 1 11 C-0.17571451 7.32589215 -0.07366746 3.83070817 0 0 Z " fill="#E6EBEE" transform="translate(496,479)"/>
<path d="M0 0 C2.72426311 2.35277269 3.8141763 4.62496331 5 8 C4.34 8.66 3.68 9.32 3 10 C0 3.375 0 3.375 0 0 Z " fill="#E7EBEF" transform="translate(749,439)"/>
<path d="M0 0 C0.33 0.66 0.66 1.32 1 2 C1.99 2.33 2.98 2.66 4 3 C3.01 3.495 3.01 3.495 2 4 C2.99 4.66 3.98 5.32 5 6 C2.625 5.75 2.625 5.75 0 5 C-1.3125 2.9375 -1.3125 2.9375 -2 1 C-1.34 0.67 -0.68 0.34 0 0 Z " fill="#1C66B1" transform="translate(251,587)"/>
<path d="M0 0 C0.33 0 0.66 0 1 0 C1 2.97 1 5.94 1 9 C0.01 9 -0.98 9 -2 9 C-1.34 6.03 -0.68 3.06 0 0 Z " fill="#E9EDF0" transform="translate(701,449)"/>
</svg>
